<svg width="67" height="67" viewBox="0 0 67 67" fill="none" xmlns="http://www.w3.org/2000/svg">
<path d="M33.5 64.3828C33.1558 64.3828 32.8182 64.5227 32.5748 64.7662C32.3314 65.0098 32.1914 65.3472 32.1914 65.6914C32.1914 66.0356 32.3313 66.3732 32.5748 66.6164C32.8182 66.8598 33.1558 67 33.5 67C33.8442 67 34.1818 66.86 34.425 66.6164C34.6686 66.3732 34.8086 66.0356 34.8086 65.6914C34.8086 65.3472 34.6686 65.0096 34.425 64.7662C34.1818 64.5227 33.8442 64.3828 33.5 64.3828Z" fill="#220959"/>
<path d="M39.5711 48.0972C41.0066 46.5909 41.8907 44.5546 41.8907 42.3144V37.6015C41.8907 32.975 38.1267 29.2108 33.5 29.2108C28.8733 29.2108 25.1093 32.975 25.1093 37.6015V42.3144C25.1093 44.5545 25.9934 46.5908 27.4289 48.0972C21.1399 48.3316 16.0957 53.52 16.0957 59.8653V65.6915C16.0957 66.4141 16.6817 67.0001 17.4043 67.0001H28.2656C28.9882 67.0001 29.5742 66.4141 29.5742 65.6915C29.5742 64.9689 28.9882 64.3829 28.2656 64.3829H18.7129V59.8654C18.7129 54.8144 22.8221 50.7052 27.873 50.7052H39.127C44.1779 50.7052 48.2871 54.8144 48.2871 59.8654V64.3829H38.7344C38.0118 64.3829 37.4258 64.9689 37.4258 65.6915C37.4258 66.4141 38.0118 67.0001 38.7344 67.0001H49.5957C50.3183 67.0001 50.9043 66.4141 50.9043 65.6915V59.8654C50.9043 53.52 45.8601 48.3316 39.5711 48.0972ZM27.7265 37.6016C27.7265 34.4181 30.3165 31.8281 33.5 31.8281C36.6835 31.8281 39.2735 34.4181 39.2735 37.6016V42.3145C39.2735 45.4981 36.6835 48.0881 33.5 48.0881C30.3165 48.0881 27.7265 45.4981 27.7265 42.3145V37.6016Z" fill="#220959"/>
<path d="M66.6168 19.9729L59.4758 12.8319C59.1016 12.4577 58.5388 12.3461 58.0497 12.5482C57.5609 12.7508 57.2419 13.2279 57.2419 13.7572V16.496H46.054C45.3314 16.496 44.7454 17.082 44.7454 17.8046V32.4967C44.7454 33.2193 45.3314 33.8053 46.054 33.8053H52.3023C53.0249 33.8053 53.6109 33.2193 53.6109 32.4967V25.3615H57.2419V28.0392C57.2419 28.5686 57.5609 29.0457 58.0497 29.2482C58.5388 29.4506 59.1016 29.3388 59.4758 28.9645L66.6168 21.8237C66.8622 21.5782 67.0001 21.2454 67.0001 20.8984C67.0001 20.5513 66.8622 20.2184 66.6168 19.9729ZM59.859 24.88V24.0529C59.859 23.3303 59.273 22.7443 58.5504 22.7443H52.3021C51.5795 22.7443 50.9935 23.3303 50.9935 24.0529V31.1881H47.3624V19.1132H58.5504C59.273 19.1132 59.859 18.5272 59.859 17.8046V16.9166L63.8408 20.8984L59.859 24.88Z" fill="#220959"/>
<path d="M22.2549 32.4967V17.8045C22.2549 17.0819 21.6689 16.4959 20.9463 16.4959H9.75817V13.7572C9.75817 13.2279 9.43927 12.7508 8.95038 12.5482C8.46136 12.3461 7.8984 12.4577 7.52427 12.8319L0.383407 19.9729C-0.127599 20.4839 -0.127599 21.3125 0.383407 21.8237L7.52427 28.9645C7.8984 29.3388 8.46136 29.4506 8.95038 29.2482C9.43927 29.0457 9.75817 28.5686 9.75817 28.0392V25.3615H13.3894V32.4967C13.3894 33.2193 13.9754 33.8053 14.698 33.8053H20.9463C21.6689 33.8053 22.2549 33.2193 22.2549 32.4967ZM19.6377 31.1881H16.0066V24.0529C16.0066 23.3303 15.4206 22.7443 14.698 22.7443H8.44958C7.72697 22.7443 7.14099 23.3303 7.14099 24.0529V24.8799L3.1592 20.8982L7.14099 16.9165V17.8045C7.14099 18.5271 7.72697 19.1131 8.44958 19.1131H19.6377V31.1881Z" fill="#220959"/>
<path d="M36.6236 15.4414C36.2794 15.4414 35.9418 15.5813 35.6984 15.8248C35.455 16.0684 35.3163 16.4058 35.3163 16.75C35.3163 17.0942 35.455 17.4318 35.6984 17.675C35.9418 17.9184 36.2794 18.0586 36.6236 18.0586C36.9691 18.0586 37.3054 17.9186 37.5486 17.675C37.7933 17.4318 37.9322 17.0942 37.9322 16.75C37.9322 16.4058 37.7933 16.0682 37.5486 15.8248C37.3054 15.5813 36.9691 15.4414 36.6236 15.4414Z" fill="#220959"/>
<path d="M26.3434 9.77384H29.0673V23.9473C29.0673 24.6699 29.6533 25.2559 30.3759 25.2559H36.6241C37.3467 25.2559 37.9327 24.6699 37.9327 23.9473V21.9845C37.9327 21.2618 37.3467 20.6759 36.6241 20.6759C35.9015 20.6759 35.3155 21.2618 35.3155 21.9845V22.6388H31.6845V8.46524C31.6845 7.74264 31.0985 7.15665 30.3759 7.15665H29.5026L33.5 3.15929L37.4974 7.15665H36.6241C35.9015 7.15665 35.3155 7.74264 35.3155 8.46524V11.5157C35.3155 12.2383 35.9015 12.8243 36.6241 12.8243C37.3467 12.8243 37.9327 12.2383 37.9327 11.5157V9.77384H40.6566C41.1859 9.77384 41.663 9.45493 41.8656 8.96604C42.068 8.47702 41.956 7.91419 41.5819 7.53993L34.4254 0.383366C33.9143 -0.127509 33.086 -0.127509 32.5747 0.383366L25.4181 7.53993C25.044 7.91419 24.932 8.47702 25.1344 8.96604C25.3369 9.45506 25.8141 9.77384 26.3434 9.77384Z" fill="#220959"/>
</svg>
