<svg width="74" height="68" viewBox="0 0 74 68" fill="none" xmlns="http://www.w3.org/2000/svg">
<path d="M35.1403 16.7036H35.1211C34.323 16.7036 33.6758 17.3506 33.6758 18.1489C33.6758 18.9471 34.323 19.5942 35.1211 19.5942H35.1403C35.9384 19.5942 36.5856 18.9471 36.5856 18.1489C36.5856 17.3506 35.9384 16.7036 35.1403 16.7036Z" fill="#220959"/>
<path d="M29.3398 16.7034H17.9035C17.1054 16.7034 16.4582 17.3505 16.4582 18.1487C16.4582 18.947 17.1054 19.594 17.9035 19.594H29.3398C30.1379 19.594 30.7852 18.947 30.7852 18.1487C30.7852 17.3505 30.1379 16.7034 29.3398 16.7034Z" fill="#220959"/>
<path d="M68.3633 10.8999V9.99887C68.3633 7.60803 66.4182 5.66293 64.0273 5.66293C61.6365 5.66293 59.6914 7.60803 59.6914 9.99887V10.7215H55.0723V4.25375C55.0723 2.40592 53.5689 0.902504 51.7209 0.902504H31.2399C29.392 0.902504 27.8885 2.40592 27.8885 4.25375V10.7215H23.2695V9.99887C23.2695 7.60803 21.3244 5.66293 18.9336 5.66293C16.5428 5.66293 14.5977 7.60803 14.5977 9.99887V10.8999C11.3755 11.6264 8.96094 14.5097 8.96094 17.9481V18.1488V30.9933V38.795C3.6974 41.0474 0 46.2775 0 52.3555C0 60.4844 6.61332 67.0977 14.7422 67.0977C22.8711 67.0977 29.4844 60.4844 29.4844 52.3555C29.4844 44.2266 22.8711 37.6133 14.7422 37.6133C13.753 37.6133 12.7867 37.712 11.8516 37.8986V32.4375L35.2701 32.4223C35.3642 35.7168 38.0714 38.3682 41.3881 38.3682H41.5725C44.8839 38.3682 47.5879 35.7253 47.6903 32.4384H71.1094V52.0664C71.1094 54.4573 69.1643 56.4024 66.7734 56.4024H39.6016C38.8035 56.4024 38.1562 57.0494 38.1562 57.8477C38.1562 58.6459 38.8035 59.293 39.6016 59.293H66.7734C70.7582 59.293 74 56.0511 74 52.0664V30.9932V18.1487V17.9479C74 14.5097 71.5855 11.6263 68.3633 10.8999ZM26.5938 52.3555C26.5938 58.8905 21.2772 64.207 14.7422 64.207C8.20721 64.207 2.89062 58.8905 2.89062 52.3555C2.89062 45.8205 8.20721 40.5039 14.7422 40.5039C21.2772 40.5039 26.5938 45.8205 26.5938 52.3555ZM62.582 9.99887C62.582 9.20192 63.2304 8.55356 64.0273 8.55356C64.8243 8.55356 65.4727 9.20192 65.4727 9.99887V10.7215H62.582V9.99887ZM30.7792 4.25361C30.7792 3.99966 30.9859 3.79298 31.24 3.79298H51.7211C51.9752 3.79298 52.1819 3.99966 52.1819 4.25361V10.7214H30.7792V4.25361ZM17.4883 9.99887C17.4883 9.20192 18.1366 8.55356 18.9336 8.55356C19.7305 8.55356 20.3789 9.20192 20.3789 9.99887V10.7215H17.4883V9.99887ZM44.8047 32.2457C44.8047 34.0279 43.3549 35.4777 41.5727 35.4777H41.3883C39.6062 35.4777 38.1564 34.0279 38.1564 32.2457V27.6658H44.8048V32.2457H44.8047ZM47.6953 29.5479V26.2205C47.6953 25.4222 47.0481 24.7752 46.25 24.7752H36.7109C35.9128 24.7752 35.2656 25.4222 35.2656 26.2205V29.5317L11.8516 29.5469V18.1487V17.9479C11.8516 15.5571 13.7967 13.612 16.1875 13.612H66.7734C69.1643 13.612 71.1094 15.5571 71.1094 17.9479V18.1487V29.5479H47.6953Z" fill="#220959"/>
<path d="M33.8203 56.4023C33.4402 56.4023 33.0673 56.557 32.7985 56.8258C32.5296 57.0946 32.375 57.4675 32.375 57.8476C32.375 58.2278 32.5295 58.6007 32.7985 58.8695C33.0674 59.1383 33.4402 59.293 33.8203 59.293C34.2004 59.293 34.5733 59.1383 34.842 58.8695C35.1108 58.6007 35.2656 58.2278 35.2656 57.8476C35.2656 57.4675 35.111 57.0946 34.842 56.8258C34.5733 56.557 34.2004 56.4023 33.8203 56.4023Z" fill="#220959"/>
<path d="M14.7422 56.6966C13.798 56.6966 13.0298 56.0594 13.0298 55.2762C13.0298 54.4779 12.3826 53.8309 11.5845 53.8309C10.7864 53.8309 10.1391 54.4779 10.1391 55.2762C10.1391 57.1811 11.4657 58.8003 13.2986 59.3689C13.3172 60.1508 13.9558 60.7793 14.7422 60.7793C15.5286 60.7793 16.1671 60.1508 16.1858 59.3689C18.0187 58.8003 19.3452 57.1811 19.3452 55.2762C19.3452 52.8991 17.2803 50.9651 14.7422 50.9651C13.798 50.9651 13.0298 50.3279 13.0298 49.5446C13.0298 48.7614 13.7978 48.1242 14.7422 48.1242C15.6865 48.1242 16.4546 48.7614 16.4546 49.5446C16.4546 50.3429 17.1018 50.99 17.8999 50.99C18.698 50.99 19.3452 50.3429 19.3452 49.5446C19.3452 47.6403 18.0196 46.0215 16.1875 45.4525V45.3771C16.1875 44.5788 15.5403 43.9318 14.7422 43.9318C13.9441 43.9318 13.2969 44.5788 13.2969 45.3771V45.4525C11.4649 46.0215 10.1391 47.6404 10.1391 49.5446C10.1391 51.9217 12.2041 53.8557 14.7422 53.8557C15.6864 53.8557 16.4546 54.493 16.4546 55.2762C16.4546 56.0594 15.6864 56.6966 14.7422 56.6966Z" fill="#220959"/>
</svg>
