<svg width="33" height="31" viewBox="0 0 33 31" fill="none" xmlns="http://www.w3.org/2000/svg">
<path d="M31.3349 15.3175C31.3349 23.1747 24.5957 29.6351 16.1674 29.6351C7.73912 29.6351 1 23.1747 1 15.3175C1 7.46037 7.73912 1 16.1674 1C24.5957 1 31.3349 7.46037 31.3349 15.3175Z" stroke="#220959" stroke-width="2"/>
<path d="M19.0159 21.9945H13.3188C12.2056 21.9933 11.1383 21.5738 10.3512 20.828C9.56403 20.0821 9.12129 19.0709 9.12012 18.0162V12.6186C9.12137 11.564 9.56414 10.5528 10.3513 9.80707C11.1384 9.06131 12.2056 8.64182 13.3188 8.64062H19.0159C20.1291 8.64174 21.1964 9.0612 21.9836 9.80697C22.7708 10.5527 23.2136 11.5639 23.2149 12.6186V18.0162C23.2137 19.071 22.7709 20.0822 21.9837 20.8281C21.1965 21.5739 20.1292 21.9934 19.0159 21.9945ZM13.3188 9.98377C12.5815 9.98459 11.8746 10.2625 11.3533 10.7564C10.8319 11.2504 10.5386 11.9201 10.5378 12.6186V18.0162C10.5386 18.7148 10.8319 19.3844 11.3533 19.8783C11.8747 20.3723 12.5815 20.6501 13.3188 20.6508H19.0159C19.7531 20.6501 20.46 20.3722 20.9813 19.8783C21.5026 19.3844 21.7958 18.7147 21.7966 18.0162V12.6186C21.7958 11.9201 21.5026 11.2504 20.9813 10.7564C20.46 10.2625 19.7532 9.98459 19.0159 9.98377H13.3188ZM16.1666 18.7708C15.4457 18.7706 14.7411 18.5679 14.1418 18.1882C13.5425 17.8086 13.0754 17.2692 12.7997 16.6381C12.524 16.007 12.452 15.3126 12.5928 14.6427C12.7336 13.9729 13.0809 13.3576 13.5908 12.8748C14.1007 12.3919 14.7502 12.0631 15.4573 11.93C16.1644 11.7968 16.8972 11.8653 17.5632 12.1268C18.2292 12.3883 18.7984 12.831 19.1989 13.3989C19.5993 13.9669 19.813 14.6346 19.813 15.3176C19.812 16.2333 19.4276 17.1112 18.7442 17.7587C18.0607 18.4062 17.134 18.7703 16.1675 18.7711L16.1666 18.7708ZM16.1666 13.206C15.7261 13.206 15.2954 13.3298 14.9291 13.5617C14.5628 13.7936 14.2773 14.1232 14.1087 14.5088C13.9401 14.8944 13.896 15.3188 13.9819 15.7282C14.0679 16.1375 14.28 16.5136 14.5915 16.8087C14.9031 17.1039 15.3 17.3049 15.732 17.3863C16.1641 17.4677 16.612 17.4259 17.019 17.2662C17.4261 17.1065 17.774 16.836 18.0187 16.4889C18.2635 16.1419 18.3941 15.7338 18.3941 15.3164C18.3932 14.7572 18.1583 14.2212 17.7409 13.8258C17.3235 13.4304 16.7577 13.208 16.1675 13.2071L16.1666 13.206ZM19.8189 12.7162C19.6461 12.7161 19.4772 12.6675 19.3336 12.5765C19.19 12.4855 19.078 12.3562 19.012 12.2049C18.9459 12.0537 18.9287 11.8873 18.9624 11.7267C18.9962 11.5662 19.0794 11.4187 19.2017 11.303C19.3239 11.1873 19.4796 11.1085 19.6491 11.0766C19.8185 11.0447 19.9942 11.0612 20.1538 11.1239C20.3134 11.1866 20.4498 11.2927 20.5458 11.4288C20.6417 11.565 20.6929 11.725 20.6928 11.8887C20.6928 12.1082 20.6009 12.3188 20.4372 12.4741C20.2735 12.6294 20.0515 12.7169 19.8198 12.7173L19.8189 12.7162Z" fill="#220959"/>
</svg>
