<svg width="30" height="30" viewBox="0 0 30 30" fill="none" xmlns="http://www.w3.org/2000/svg">
<path d="M7.43865 24.1503C7.74135 23.7146 7.91936 23.1861 7.91936 22.6166C7.91936 21.1304 6.71021 19.9213 5.22404 19.9213C3.73787 19.9213 2.52873 21.1304 2.52873 22.6166C2.52873 23.1861 2.70674 23.7146 3.00943 24.1503C1.32902 24.2764 0 25.6831 0 27.3953V29.4135C0 29.737 0.262324 29.9994 0.585938 29.9994H9.86215C10.1858 29.9994 10.4481 29.737 10.4481 29.4135V27.3953C10.4481 25.6831 9.11912 24.2764 7.43865 24.1503ZM5.22404 21.0931C6.06404 21.0931 6.74748 21.7765 6.74748 22.6166C6.74748 23.4566 6.06404 24.14 5.22404 24.14C4.38404 24.14 3.70061 23.4566 3.70061 22.6166C3.70061 21.7765 4.38404 21.0931 5.22404 21.0931ZM9.27621 28.8275H1.17188V27.3953C1.17188 26.2465 2.10645 25.3119 3.25523 25.3119H4.63816V27.0697C4.63816 27.3933 4.90049 27.6556 5.2241 27.6556C5.54771 27.6556 5.81004 27.3933 5.81004 27.0697V25.3119H7.19297C8.3417 25.3119 9.27633 26.2465 9.27633 27.3953V28.8275H9.27621Z" fill="#220959"/>
<path d="M26.9906 24.1503C27.2933 23.7146 27.4713 23.1861 27.4713 22.6166C27.4713 21.1304 26.2621 19.9213 24.776 19.9213C23.2898 19.9213 22.0806 21.1304 22.0806 22.6166C22.0806 23.1861 22.2587 23.7146 22.5613 24.1503C20.8809 24.2764 19.5519 25.6831 19.5519 27.3953V29.4135C19.5519 29.737 19.8142 29.9994 20.1378 29.9994H29.4141C29.7377 29.9994 30 29.737 30 29.4135V27.3953C30 25.6831 28.671 24.2764 26.9906 24.1503ZM24.776 21.0931C25.616 21.0931 26.2994 21.7765 26.2994 22.6166C26.2994 23.4566 25.616 24.14 24.776 24.14C23.936 24.14 23.2525 23.4566 23.2525 22.6166C23.2525 21.7765 23.9359 21.0931 24.776 21.0931ZM28.8281 28.8275H20.7238V27.3953C20.7238 26.2465 21.6584 25.3119 22.8071 25.3119H24.1901V27.0697C24.1901 27.3933 24.4524 27.6556 24.776 27.6556C25.0996 27.6556 25.362 27.3933 25.362 27.0697V25.3119H26.7449C27.8936 25.3119 28.8282 26.2465 28.8282 27.3953V28.8275H28.8281Z" fill="#220959"/>
<path d="M0.585938 10.0796H9.86215C10.1858 10.0796 10.4481 9.81721 10.4481 9.49365V7.47545C10.4481 5.76328 9.11906 4.35662 7.43865 4.23047C7.74135 3.79477 7.91936 3.26631 7.91936 2.69678C7.91936 1.21061 6.71021 0.00146484 5.22404 0.00146484C3.73787 0.00146484 2.52873 1.21061 2.52873 2.69678C2.52873 3.26631 2.70674 3.79477 3.00943 4.23047C1.32902 4.35662 0 5.76322 0 7.47539V9.49359C0 9.81721 0.262324 10.0796 0.585938 10.0796ZM5.22404 1.17334C6.06404 1.17334 6.74748 1.85672 6.74748 2.69678C6.74748 3.53684 6.06404 4.22021 5.22404 4.22021C4.38404 4.22021 3.70061 3.53684 3.70061 2.69678C3.70061 1.85672 4.38404 1.17334 5.22404 1.17334ZM1.17188 7.47539C1.17188 6.32666 2.10645 5.39209 3.25523 5.39209H4.63816V7.1499C4.63816 7.47346 4.90049 7.73584 5.2241 7.73584C5.54771 7.73584 5.81004 7.47346 5.81004 7.1499V5.39209H7.19297C8.3417 5.39209 9.27633 6.32666 9.27633 7.47545V8.90771H1.17188V7.47539Z" fill="#220959"/>
<path d="M26.9906 4.22955C27.2933 3.79385 27.4713 3.26539 27.4713 2.69586C27.4713 1.20969 26.2621 0.000549316 24.776 0.000549316C23.2898 0.000549316 22.0806 1.20969 22.0806 2.69586C22.0806 3.26539 22.2587 3.79385 22.5613 4.22955C20.8809 4.35571 19.5519 5.76237 19.5519 7.47453V9.49274C19.5519 9.81629 19.8142 10.0787 20.1378 10.0787H29.4141C29.7377 10.0787 30 9.81629 30 9.49274V7.47453C30 5.76231 28.671 4.35571 26.9906 4.22955ZM24.776 1.17242C25.616 1.17242 26.2994 1.8558 26.2994 2.69586C26.2994 3.53592 25.616 4.2193 24.776 4.2193C23.936 4.2193 23.2525 3.53592 23.2525 2.69586C23.2525 1.8558 23.9359 1.17242 24.776 1.17242ZM28.8281 8.9068H20.7238V7.47453C20.7238 6.3258 21.6584 5.39117 22.8071 5.39117H24.1901V7.14899C24.1901 7.47254 24.4524 7.73492 24.776 7.73492C25.0996 7.73492 25.362 7.47254 25.362 7.14899V5.39117H26.7449C27.8936 5.39117 28.8282 6.32574 28.8282 7.47453V8.9068H28.8281Z" fill="#220959"/>
<path d="M15.0076 18.8666C14.8535 18.8666 14.7023 18.9292 14.5928 19.0383C14.4838 19.1472 14.4217 19.2984 14.4217 19.4525C14.4217 19.6066 14.4838 19.7578 14.5928 19.8667C14.7023 19.9757 14.8535 20.0385 15.0076 20.0385C15.1617 20.0385 15.3129 19.9758 15.4219 19.8667C15.5309 19.7578 15.5936 19.6066 15.5936 19.4525C15.5936 19.2984 15.5309 19.1472 15.4219 19.0383C15.3129 18.9293 15.1617 18.8666 15.0076 18.8666Z" fill="#220959"/>
<path d="M20.224 19.4525V17.4343C20.224 15.7221 18.895 14.3154 17.2146 14.1893C17.5173 13.7536 17.6953 13.2251 17.6953 12.6556C17.6953 11.1694 16.4862 9.96027 15 9.96027C13.5138 9.96027 12.3047 11.1694 12.3047 12.6556C12.3047 13.2251 12.4827 13.7536 12.7854 14.1893C11.105 14.3154 9.77596 15.7221 9.77596 17.4343V19.4525C9.77596 19.776 10.0383 20.0384 10.3619 20.0384H12.6562C12.9799 20.0384 13.2422 19.776 13.2422 19.4525C13.2422 19.1289 12.9799 18.8665 12.6562 18.8665H10.9478V17.4343C10.9478 16.2855 11.8824 15.3509 13.0312 15.3509H14.4141V17.0554C14.4141 17.3789 14.6764 17.6413 15 17.6413C15.3236 17.6413 15.5859 17.3789 15.5859 17.0554V15.3509H16.9689C18.1176 15.3509 19.0522 16.2855 19.0522 17.4343V18.8665H17.3437C17.0201 18.8665 16.7578 19.1289 16.7578 19.4525C16.7578 19.776 17.0201 20.0384 17.3437 20.0384H19.6381C19.9617 20.0384 20.224 19.7761 20.224 19.4525ZM15 11.1321C15.84 11.1321 16.5234 11.8155 16.5234 12.6556C16.5234 13.4956 15.84 14.179 15 14.179C14.16 14.179 13.4766 13.4956 13.4766 12.6556C13.4766 11.8155 14.16 11.1321 15 11.1321Z" fill="#220959"/>
<path d="M8.41799 13.2415H5.80998V11.7181C5.80998 11.3945 5.54766 11.1321 5.22404 11.1321C4.90043 11.1321 4.63811 11.3945 4.63811 11.7181V13.8275C4.63811 14.151 4.90043 14.4134 5.22404 14.4134H8.41793C8.74154 14.4134 9.00387 14.151 9.00387 13.8275C9.00387 13.5039 8.74154 13.2415 8.41799 13.2415Z" fill="#220959"/>
<path d="M8.41799 15.5853H5.22404C4.90043 15.5853 4.63811 15.8477 4.63811 16.1713V18.2806C4.63811 18.6042 4.90043 18.8666 5.22404 18.8666C5.54766 18.8666 5.80998 18.6042 5.80998 18.2806V16.7572H8.41793C8.74154 16.7572 9.00387 16.4948 9.00387 16.1713C9.00387 15.8477 8.74154 15.5853 8.41799 15.5853Z" fill="#220959"/>
<path d="M21.582 14.4134H24.7759C25.0995 14.4134 25.3618 14.151 25.3618 13.8275V11.7181C25.3618 11.3945 25.0995 11.1321 24.7759 11.1321C24.4523 11.1321 24.1899 11.3945 24.1899 11.7181V13.2415H21.582C21.2584 13.2415 20.9961 13.5039 20.9961 13.8275C20.9961 14.151 21.2584 14.4134 21.582 14.4134Z" fill="#220959"/>
<path d="M21.582 16.7572H24.1899V18.2806C24.1899 18.6042 24.4523 18.8666 24.7759 18.8666C25.0995 18.8666 25.3618 18.6042 25.3618 18.2806V16.1713C25.3618 15.8477 25.0995 15.5853 24.7759 15.5853H21.582C21.2584 15.5853 20.9961 15.8477 20.9961 16.1713C20.9961 16.4948 21.2584 16.7572 21.582 16.7572Z" fill="#220959"/>
</svg>
