<svg width="30" height="30" viewBox="0 0 30 30" fill="none" xmlns="http://www.w3.org/2000/svg">
<path d="M6.8833 1.95124C7.20691 1.95124 7.46924 1.68891 7.46924 1.3653V0.591919C7.46924 0.268306 7.20691 0.00598145 6.8833 0.00598145C6.55969 0.00598145 6.29736 0.268306 6.29736 0.591919V1.3653C6.29736 1.68891 6.55975 1.95124 6.8833 1.95124Z" fill="#220959"/>
<path d="M12.7785 4.18857C12.9284 4.18857 13.0784 4.13138 13.1928 4.01695L13.5979 3.61183C13.8267 3.38302 13.8267 3.01201 13.5979 2.78314C13.3691 2.55427 12.9981 2.55433 12.7692 2.78314L12.3641 3.18826C12.1353 3.41707 12.1353 3.78808 12.3641 4.01695C12.4785 4.13138 12.6285 4.18857 12.7785 4.18857Z" fill="#220959"/>
<path d="M1.12914 4.33364C1.27908 4.33364 1.42908 4.2764 1.54346 4.16202C1.77227 3.93321 1.77227 3.5622 1.54346 3.33333L1.00024 2.79011C0.771428 2.5613 0.400413 2.5613 0.171545 2.79011C-0.0572632 3.01891 -0.0572632 3.38993 0.171545 3.6188L0.714768 4.16202C0.829202 4.2764 0.979202 4.33364 1.12914 4.33364Z" fill="#220959"/>
<path d="M6.88821 11.262C6.50325 11.262 6.19006 11.0021 6.19006 10.6826C6.19006 10.359 5.92774 10.0967 5.60413 10.0967C5.28051 10.0967 5.01819 10.359 5.01819 10.6826C5.01819 11.4569 5.55766 12.1149 6.30292 12.3456C6.30983 12.6633 6.56893 12.9187 6.88821 12.9187C7.20749 12.9187 7.46659 12.6633 7.4735 12.3456C8.21875 12.1149 8.75823 11.4569 8.75823 10.6826C8.75823 9.71699 7.91934 8.9313 6.88821 8.9313C6.50325 8.9313 6.19006 8.67138 6.19006 8.35187C6.19006 8.03236 6.50325 7.77244 6.88821 7.77244C7.27317 7.77244 7.58635 8.03236 7.58635 8.35187C7.58635 8.67548 7.84868 8.93781 8.17229 8.93781C8.4959 8.93781 8.75823 8.67548 8.75823 8.35187C8.75823 7.57785 8.21905 6.91996 7.47415 6.6891V6.6571C7.47415 6.33349 7.21182 6.07117 6.88821 6.07117C6.56459 6.07117 6.30227 6.33349 6.30227 6.6571V6.6891C5.55737 6.91996 5.01819 7.57785 5.01819 8.35187C5.01819 9.31755 5.85708 10.1032 6.88821 10.1032C7.27317 10.1032 7.58635 10.3631 7.58635 10.6826C7.58635 11.0021 7.27317 11.262 6.88821 11.262Z" fill="#220959"/>
<path d="M29.4141 10.0118H28.5117C28.3884 9.60022 28.2242 9.20342 28.0204 8.82496L28.6583 8.18711C28.8871 7.9583 28.8871 7.58729 28.6583 7.35842L26.8798 5.57987C26.651 5.35106 26.2799 5.35106 26.0511 5.57987L25.4132 6.21778C25.0347 6.01387 24.6378 5.84957 24.2264 5.72641V4.82407C24.2264 4.50045 23.9641 4.23813 23.6405 4.23813H21.1252C20.8016 4.23813 20.5393 4.50045 20.5393 4.82407V5.72858C20.1286 5.85209 19.7326 6.01651 19.355 6.2203L18.7146 5.57993C18.6047 5.47006 18.4556 5.4083 18.3002 5.4083C18.1448 5.4083 17.9958 5.47006 17.8859 5.57993L16.1074 7.35848C15.8786 7.58729 15.8786 7.9583 16.1074 8.18717L16.75 8.82977C16.5473 9.20694 16.3838 9.60233 16.2612 10.0118H15.3516C15.0279 10.0118 14.7656 10.2742 14.7656 10.5978V13.113C14.7656 13.4366 15.0279 13.699 15.3516 13.699H16.2633C16.3864 14.1079 16.5499 14.5023 16.7525 14.8785L16.1074 15.5236C15.8786 15.7524 15.8786 16.1235 16.1074 16.3523L17.886 18.1309C17.9958 18.2407 18.1449 18.3025 18.3003 18.3025C18.4557 18.3025 18.6047 18.2407 18.7146 18.1309L19.3598 17.4857C19.736 17.6883 20.1304 17.8519 20.5393 17.9749V18.8867C20.5393 19.2102 20.8016 19.4726 21.1252 19.4726H23.6405C23.9641 19.4726 24.2264 19.2102 24.2264 18.8867V17.9771C24.6362 17.8543 25.0314 17.6909 25.4085 17.4882L26.0511 18.1309C26.1609 18.2408 26.31 18.3026 26.4654 18.3026C26.6208 18.3026 26.7698 18.2408 26.8797 18.1309L28.6583 16.3524C28.7681 16.2425 28.8299 16.0935 28.8299 15.9381C28.8299 15.7827 28.7681 15.6336 28.6583 15.5238L28.0179 14.8834C28.2217 14.5057 28.3861 14.1097 28.5096 13.6991H29.4141C29.7377 13.6991 30 13.4368 30 13.1131V10.5979C30 10.2741 29.7377 10.0118 29.4141 10.0118ZM28.8281 12.527H28.0576C27.7829 12.527 27.5445 12.7184 27.485 12.9867C27.3532 13.582 27.1197 14.1446 26.7912 14.6589C26.642 14.8897 26.673 15.1957 26.8692 15.3918L27.4153 15.938L26.4654 16.8879L25.9175 16.34C25.7307 16.1532 25.4412 16.1144 25.2119 16.2455C25.2038 16.2501 25.1957 16.255 25.1878 16.26C24.673 16.588 24.1101 16.8207 23.5137 16.952C23.2457 17.0116 23.0545 17.2499 23.0545 17.5246V18.3007H21.7111V17.523C21.7111 17.2482 21.5197 17.0098 21.2514 16.9504C20.6569 16.8187 20.0949 16.5856 19.581 16.2576C19.573 16.2525 19.5648 16.2476 19.5565 16.2428C19.3272 16.1118 19.0378 16.1505 18.8509 16.3373L18.3003 16.8879L17.3504 15.938L17.8975 15.3909C18.095 15.1969 18.1303 14.8884 17.979 14.6545C17.6528 14.1427 17.4207 13.5833 17.289 12.9918C17.2323 12.7237 16.9945 12.5272 16.7153 12.5272H15.9375V11.1838H16.7137C16.9887 11.1838 17.2273 10.9921 17.2864 10.7234C17.4175 10.1281 17.6502 9.5653 17.9781 9.05049C17.989 9.03344 17.9989 9.01586 18.008 8.99776C18.1208 8.77217 18.0765 8.49907 17.8982 8.32071L17.3503 7.77286L18.3002 6.82293L18.8464 7.36909C19.0425 7.5652 19.3486 7.59619 19.5793 7.44702C20.0937 7.11848 20.6562 6.88504 21.2518 6.75315C21.5199 6.69356 21.7111 6.45532 21.7111 6.18063V5.41H23.0545V6.17893C23.0545 6.45397 23.2462 6.69256 23.5148 6.75168C24.1118 6.88311 24.6759 7.11666 25.1918 7.44584C25.1998 7.451 25.208 7.45592 25.2163 7.46067C25.4457 7.59168 25.7351 7.55301 25.9219 7.36616L26.4653 6.82276L27.4152 7.77268L26.8718 8.31602C26.685 8.50287 26.6462 8.79227 26.7773 9.02166C26.782 9.02998 26.787 9.03813 26.7921 9.04616C27.1213 9.56196 27.3548 10.1262 27.4866 10.7242C27.5462 10.9923 27.7845 11.1835 28.0591 11.1835H28.8281V12.527Z" fill="#220959"/>
<path d="M22.3828 8.04672C20.2828 8.04672 18.5742 9.75526 18.5742 11.8553C18.5742 13.9554 20.2828 15.6639 22.3828 15.6639C24.4829 15.6639 26.1914 13.9554 26.1914 11.8553C26.1914 9.75526 24.4829 8.04672 22.3828 8.04672ZM22.3828 14.492C20.9289 14.492 19.7461 13.3092 19.7461 11.8553C19.7461 10.4014 20.9289 9.2186 22.3828 9.2186C23.8367 9.2186 25.0195 10.4014 25.0195 11.8553C25.0195 13.3092 23.8367 14.492 22.3828 14.492Z" fill="#220959"/>
<path d="M22.5 22.9881C22.1764 22.9881 21.914 23.2505 21.914 23.574V24.4144C21.914 24.6083 21.7564 24.766 21.5625 24.766H19.1654L19.3004 24.6881C19.4349 24.6104 19.5331 24.4824 19.5733 24.3323C19.6136 24.1822 19.5925 24.0223 19.5148 23.8877L18.5255 22.1742C18.3637 21.8939 18.0054 21.7979 17.7251 21.9597L17.1616 22.2851C16.9765 22.1542 16.7806 22.041 16.5753 21.9461V21.2958C16.5753 20.9722 16.313 20.7098 15.9893 20.7098H14.0107C13.6871 20.7098 13.4247 20.9722 13.4247 21.2958V21.9461C13.2194 22.041 13.0236 22.1542 12.8385 22.2851L12.2749 21.9597C11.9947 21.7979 11.6363 21.8938 11.4745 22.1742L10.4852 23.8877C10.4075 24.0223 10.3864 24.1822 10.4267 24.3323C10.4669 24.4825 10.5651 24.6104 10.6997 24.6881L10.8347 24.766H7.82084C7.62696 24.766 7.46928 24.6083 7.46928 24.4144V20.2032H7.99469C8.15008 20.2032 8.29909 20.1415 8.40901 20.0316L9.55985 18.8808C9.66971 18.7709 9.73147 18.6219 9.73147 18.4665V15.8108C9.81637 15.4204 10.0499 15.0763 10.3782 14.862C12.1975 13.6742 13.2837 11.6696 13.2837 9.4998C13.2837 7.78992 12.6177 6.18246 11.4085 4.97355C10.1996 3.765 8.59276 3.09955 6.8834 3.09955C6.88288 3.09955 6.88217 3.09955 6.88164 3.09955C3.35301 3.10049 0.482681 5.97193 0.483032 9.5005C0.483208 11.6641 1.56473 13.6653 3.3761 14.854C3.71219 15.0745 3.95014 15.4215 4.03516 15.811V18.4665C4.03516 18.6219 4.09692 18.771 4.20678 18.8808L5.35756 20.0317C5.46743 20.1415 5.61649 20.2033 5.77188 20.2033H6.29729V24.4145C6.29729 25.2545 6.98073 25.9379 7.82073 25.9379H10.8346L10.6996 26.0159C10.4193 26.1777 10.3233 26.536 10.4851 26.8162L11.4744 28.5298C11.6362 28.81 11.9945 28.906 12.2748 28.7442L12.8383 28.4188C13.0234 28.5497 13.2193 28.6629 13.4246 28.7579V29.4081C13.4246 29.7316 13.687 29.994 14.0106 29.994H15.9892C16.3128 29.994 16.5752 29.7316 16.5752 29.4081V28.7579C16.7805 28.6629 16.9764 28.5497 17.1614 28.4188L17.725 28.7442C18.0054 28.9061 18.3636 28.81 18.5254 28.5298L19.5147 26.8162C19.6765 26.536 19.5805 26.1777 19.3002 26.0159L19.1652 25.9379H21.5625C22.4025 25.9379 23.0859 25.2545 23.0859 24.4145V23.574C23.0859 23.2505 22.8236 22.9881 22.5 22.9881ZM1.65491 9.50039C1.65461 6.61793 3.99942 4.27219 6.88188 4.27142C6.88241 4.27142 6.88282 4.27142 6.88334 4.27142C8.27963 4.27142 9.59243 4.81511 10.5799 5.8023C11.5677 6.78984 12.1117 8.10299 12.1117 9.4998C12.1117 11.2723 11.2242 12.9101 9.7375 13.8807C9.26758 14.1875 8.90664 14.6407 8.70485 15.1644H5.06102C4.85811 14.6412 4.49389 14.1857 4.01899 13.8741C2.53885 12.9029 1.65508 11.2678 1.65491 9.50039ZM5.20709 18.2238V16.3363H8.55954V18.2238L7.75194 19.0314H6.01463L5.20709 18.2238ZM17.8036 27.4363L17.4024 27.2048C17.1832 27.0782 16.9075 27.1067 16.7188 27.2755C16.4517 27.5144 16.1447 27.6919 15.8063 27.8032C15.5658 27.8822 15.4033 28.1068 15.4033 28.3598V28.8221H14.5966V28.3598C14.5966 28.1068 14.4341 27.8822 14.1936 27.8032C13.8552 27.692 13.5481 27.5144 13.2811 27.2755C13.0923 27.1067 12.8167 27.0782 12.5975 27.2048L12.1963 27.4363L11.793 26.7377L12.1934 26.5065C12.4124 26.3801 12.5255 26.1274 12.4741 25.8799C12.4383 25.7072 12.4201 25.5296 12.4201 25.3519C12.4201 25.1744 12.4383 24.9967 12.4742 24.8238C12.5255 24.5763 12.4124 24.3237 12.1934 24.1973L11.793 23.9662L12.1963 23.2675L12.5975 23.4991C12.8167 23.6256 13.0924 23.5972 13.2811 23.4284C13.5482 23.1895 13.8552 23.0119 14.1936 22.9007C14.4341 22.8216 14.5966 22.5971 14.5966 22.344V21.8817H15.4033V22.344C15.4033 22.5971 15.5658 22.8216 15.8063 22.9007C16.1447 23.0119 16.4518 23.1895 16.7188 23.4284C16.9075 23.5971 17.1831 23.6256 17.4024 23.4991L17.8036 23.2675L18.2069 23.9662L17.8065 24.1973C17.5876 24.3237 17.4744 24.5763 17.5257 24.8238C17.5616 24.9967 17.5798 25.1743 17.5798 25.3519C17.5798 25.5295 17.5616 25.7072 17.5258 25.8799C17.4744 26.1275 17.5875 26.3801 17.8065 26.5065L18.2069 26.7377L17.8036 27.4363Z" fill="#220959"/>
<path d="M22.5 20.6444C22.3459 20.6444 22.1947 20.707 22.0857 20.8161C21.9768 20.925 21.9141 21.0762 21.9141 21.2303C21.9141 21.3844 21.9768 21.5356 22.0857 21.6445C22.1947 21.7535 22.3459 21.8163 22.5 21.8163C22.6541 21.8163 22.8053 21.7536 22.9143 21.6445C23.0232 21.5356 23.0859 21.3844 23.0859 21.2303C23.0859 21.0762 23.0232 20.925 22.9143 20.8161C22.8053 20.7071 22.6541 20.6444 22.5 20.6444Z" fill="#220959"/>
<path d="M15 24.7658C14.8459 24.7658 14.6947 24.8285 14.5857 24.9375C14.4768 25.0465 14.4141 25.1977 14.4141 25.3518C14.4141 25.5065 14.4768 25.657 14.5857 25.766C14.6947 25.875 14.8459 25.9377 15 25.9377C15.1541 25.9377 15.3053 25.875 15.4143 25.766C15.5232 25.657 15.5859 25.5064 15.5859 25.3518C15.5859 25.1977 15.5232 25.0465 15.4143 24.9375C15.3053 24.8285 15.1541 24.7658 15 24.7658Z" fill="#220959"/>
</svg>
