<svg width="30" height="30" viewBox="0 0 30 30" fill="none" xmlns="http://www.w3.org/2000/svg">
<path d="M7.26562 12.6562H22.7344C23.0579 12.6562 23.3203 12.3939 23.3203 12.0703V2.92969C23.3203 2.60613 23.0579 2.34375 22.7344 2.34375H7.26562C6.94207 2.34375 6.67969 2.60613 6.67969 2.92969V12.0703C6.67969 12.3939 6.94207 12.6562 7.26562 12.6562ZM7.85156 3.51562H22.1484V11.4844H7.85156V3.51562Z" fill="#220959"/>
<path d="M25.0781 13.8281C24.7546 13.8281 24.4922 14.0905 24.4922 14.4141V28.067C24.4922 28.4867 24.1508 28.8281 23.7311 28.8281H6.26889C5.84924 28.8281 5.50781 28.4867 5.50781 28.067V25.1953C5.50781 24.8718 5.24543 24.6094 4.92187 24.6094C4.59832 24.6094 4.33594 24.8718 4.33594 25.1953V28.067C4.33594 29.1329 5.20307 30 6.26889 30H23.7311C24.7969 30 25.664 29.1329 25.664 28.067V14.4141C25.6641 14.0905 25.4017 13.8281 25.0781 13.8281Z" fill="#220959"/>
<path d="M4.92188 23.4375C5.07598 23.4375 5.22715 23.3748 5.33607 23.2658C5.44512 23.1568 5.50781 23.0057 5.50781 22.8516C5.50781 22.6975 5.44512 22.5463 5.33607 22.4373C5.22715 22.3283 5.07656 22.2656 4.92188 22.2656C4.76713 22.2656 4.6166 22.3283 4.50762 22.4373C4.39863 22.5463 4.33594 22.6975 4.33594 22.8516C4.33594 23.0057 4.39857 23.1568 4.50762 23.2658C4.6166 23.3748 4.76777 23.4375 4.92188 23.4375Z" fill="#220959"/>
<path d="M23.7311 0H6.26889C5.20307 0 4.33594 0.867129 4.33594 1.93295V20.5078C4.33594 20.8314 4.59832 21.0938 4.92188 21.0938C5.24543 21.0938 5.50781 20.8314 5.50781 20.5078V1.93295C5.50781 1.5133 5.84924 1.17188 6.26889 1.17188H23.7311C24.1508 1.17188 24.4922 1.5133 24.4922 1.93295V9.70195C24.4922 10.0255 24.7546 10.2879 25.0781 10.2879C25.4017 10.2879 25.6641 10.0255 25.6641 9.70195V1.93295C25.6641 0.867129 24.7969 0 23.7311 0Z" fill="#220959"/>
<path d="M25.0781 11.4844C24.924 11.4844 24.7729 11.547 24.6639 11.6561C24.5549 11.7651 24.4922 11.9162 24.4922 12.0703C24.4922 12.2244 24.5548 12.3756 24.6639 12.4845C24.7729 12.5935 24.924 12.6562 25.0781 12.6562C25.2322 12.6562 25.3834 12.5936 25.4923 12.4845C25.6014 12.3756 25.6641 12.2244 25.6641 12.0703C25.6641 11.9162 25.6014 11.765 25.4923 11.6561C25.3834 11.547 25.2322 11.4844 25.0781 11.4844Z" fill="#220959"/>
<path d="M6.67969 27.0703C6.67969 27.3939 6.94207 27.6562 7.26562 27.6562H22.7344C23.0579 27.6562 23.3203 27.3939 23.3203 27.0703V14.4141C23.3203 14.0905 23.0579 13.8281 22.7344 13.8281H7.26562C6.94207 13.8281 6.67969 14.0905 6.67969 14.4141V27.0703ZM16.9922 22.2656H13.0078V19.2188H16.9922V22.2656ZM11.8359 22.2656H7.85156V19.2188H11.8359V22.2656ZM7.85156 23.4375H11.8359V26.4844H7.85156V23.4375ZM13.0078 23.4375H16.9922V26.4844H13.0078V23.4375ZM22.1484 26.4844H18.1641V22.8516V19.2188H22.1484V26.4844ZM22.1484 18.0469H18.1641V15H22.1484V18.0469ZM16.9922 18.0469H13.0078V15H16.9922V18.0469ZM7.85156 15H11.8359V18.0469H7.85156V15Z" fill="#220959"/>
<path d="M10.4519 6.0598C10.7453 6.0598 10.993 6.2599 10.993 6.49673C10.993 6.82029 11.2554 7.08267 11.579 7.08267C11.9025 7.08267 12.1649 6.82029 12.1649 6.49673C12.1649 5.8024 11.6941 5.20949 11.0366 4.98455C11.0236 4.67248 10.7672 4.42322 10.4519 4.42322C10.1366 4.42322 9.88018 4.67242 9.86717 4.98455C9.20969 5.20949 8.73883 5.8024 8.73883 6.49673C8.73883 7.38384 9.50729 8.10554 10.4518 8.10554C10.7451 8.10554 10.9929 8.30564 10.9929 8.54248C10.9929 8.77937 10.7451 8.97947 10.4518 8.97947C10.1585 8.97947 9.9107 8.77937 9.9107 8.54248C9.9107 8.21892 9.64832 7.95654 9.32477 7.95654C9.00121 7.95654 8.73883 8.21892 8.73883 8.54248C8.73883 9.23769 9.21086 9.83124 9.86963 10.0555C9.90186 10.3487 10.1501 10.5769 10.4518 10.5769C10.7535 10.5769 11.0018 10.3487 11.034 10.0555C11.6928 9.83124 12.1648 9.23775 12.1648 8.54248C12.1648 7.65537 11.3963 6.93367 10.4518 6.93367C10.1585 6.93367 9.9107 6.73357 9.9107 6.49673C9.9107 6.2599 10.1586 6.0598 10.4519 6.0598Z" fill="#220959"/>
<path d="M15.0074 6.0598C15.3008 6.0598 15.5486 6.2599 15.5486 6.49673C15.5486 6.82029 15.8109 7.08267 16.1345 7.08267C16.458 7.08267 16.7204 6.82029 16.7204 6.49673C16.7204 5.8024 16.2496 5.20949 15.5921 4.98455C15.5791 4.67248 15.3227 4.42322 15.0074 4.42322C14.6921 4.42322 14.4357 4.67242 14.4227 4.98455C13.7652 5.20949 13.2943 5.8024 13.2943 6.49673C13.2943 7.38384 14.0628 8.10554 15.0073 8.10554C15.3006 8.10554 15.5484 8.30564 15.5484 8.54248C15.5484 8.77937 15.3006 8.97947 15.0073 8.97947C14.714 8.97947 14.4662 8.77937 14.4662 8.54248C14.4662 8.21892 14.2038 7.95654 13.8803 7.95654C13.5567 7.95654 13.2943 8.21892 13.2943 8.54248C13.2943 9.23769 13.7664 9.83124 14.4251 10.0555C14.4574 10.3487 14.7056 10.5769 15.0073 10.5769C15.309 10.5769 15.5573 10.3487 15.5895 10.0555C16.2483 9.83124 16.7203 9.23775 16.7203 8.54248C16.7203 7.65537 15.9519 6.93367 15.0073 6.93367C14.714 6.93367 14.4662 6.73357 14.4662 6.49673C14.4662 6.2599 14.7141 6.0598 15.0074 6.0598Z" fill="#220959"/>
<path d="M19.2458 6.0598C19.5391 6.0598 19.7869 6.2599 19.7869 6.49673C19.7869 6.82029 20.0493 7.08267 20.3728 7.08267C20.6964 7.08267 20.9587 6.82029 20.9587 6.49673C20.9587 5.8024 20.4879 5.20949 19.8304 4.98455C19.8174 4.67248 19.561 4.42322 19.2457 4.42322C18.9304 4.42322 18.674 4.67242 18.661 4.98449C18.0035 5.20943 17.5326 5.80234 17.5326 6.49667C17.5326 7.38378 18.3011 8.10548 19.2456 8.10548C19.539 8.10548 19.7868 8.30558 19.7868 8.54242C19.7868 8.77931 19.539 8.97941 19.2456 8.97941C18.9523 8.97941 18.7045 8.77931 18.7045 8.54242C18.7045 8.21886 18.4421 7.95648 18.1185 7.95648C17.795 7.95648 17.5326 8.21886 17.5326 8.54242C17.5326 9.23769 18.0046 9.83119 18.6635 10.0555C18.6957 10.3486 18.9439 10.5768 19.2456 10.5768C19.5473 10.5768 19.7956 10.3486 19.8278 10.0555C20.4866 9.83119 20.9586 9.23769 20.9586 8.54242C20.9586 7.65531 20.1902 6.93361 19.2456 6.93361C18.9523 6.93361 18.7045 6.73351 18.7045 6.49667C18.7045 6.25984 18.9524 6.0598 19.2458 6.0598Z" fill="#220959"/>
</svg>
