<svg width="29" height="29" viewBox="0 0 29 29" fill="none" xmlns="http://www.w3.org/2000/svg">
<path d="M25.375 13.1406H23.0876V7.31049C23.0876 6.36669 22.3198 5.59887 21.376 5.59887H21.0497C20.8159 4.93963 20.1863 4.46606 19.4479 4.46606H19.0338C18.0969 4.46606 17.3346 5.22833 17.3346 6.16528C17.3346 7.10222 18.0969 7.86449 19.0338 7.86449H19.4479C20.1863 7.86449 20.8159 7.39092 21.0497 6.73168H21.376C21.6952 6.73168 21.9548 6.99132 21.9548 7.31049V13.1406H18.1908V10.095C18.1908 8.41748 16.8259 7.05266 15.1484 7.05266H14.0563C14.534 6.49181 14.8232 5.76579 14.8232 4.97316V3.8493V3.32934V3.21232C14.8232 1.44105 13.3821 0 11.6108 0C9.8395 0 8.3985 1.44105 8.3985 3.21232V3.32934V3.8493V4.97316C8.3985 5.76585 8.68765 6.49187 9.1653 7.05266H8.07327C6.39575 7.05266 5.03093 8.41748 5.03093 10.095V13.1406H3.625C3.31223 13.1406 3.05859 13.3942 3.05859 13.707V17.332C3.05859 17.6449 3.31223 17.8984 3.625 17.8984H5.47165V28.4336C5.47165 28.7464 5.72529 29 6.03806 29H9.24375C9.55652 29 9.81016 28.7464 9.81016 28.4336C9.81016 28.1208 9.55652 27.8672 9.24375 27.8672H6.60441V21.0703H16.8099C17.1226 21.0703 17.3763 20.8167 17.3763 20.5039C17.3763 20.1911 17.1226 19.9375 16.8099 19.9375H6.60447V17.8984H22.3956V27.8672H13.7749C13.4621 27.8672 13.2085 28.1208 13.2085 28.4336C13.2085 28.7464 13.4621 29 13.7749 29H22.9619C23.2747 29 23.5283 28.7464 23.5283 28.4336V17.8984H25.375C25.6878 17.8984 25.9414 17.6449 25.9414 17.332V13.707C25.9414 13.3942 25.6878 13.1406 25.375 13.1406ZM19.4479 6.73168H19.0338C18.7215 6.73168 18.4674 6.47759 18.4674 6.16528C18.4674 5.85296 18.7215 5.59887 19.0338 5.59887H19.4479C19.7602 5.59887 20.0143 5.85296 20.0143 6.16528C20.0143 6.47759 19.7602 6.73168 19.4479 6.73168ZM9.59821 8.18548H10.5123L9.59821 9.0638V8.18548ZM13.6235 8.18548V9.06386L12.7093 8.18548H13.6235ZM9.53131 3.21232C9.53131 2.06568 10.4642 1.13281 11.6108 1.13281C12.6304 1.13281 13.481 1.87039 13.657 2.84002L12.7737 2.32108C12.5351 2.18095 12.2304 2.23357 12.0526 2.44563C11.6067 2.97771 10.9528 3.28289 10.2586 3.28289H9.53131V3.21232ZM9.53131 4.97316V4.4157H10.2586C11.1254 4.4157 11.9497 4.09512 12.5836 3.52322L13.6904 4.17345V4.97316C13.6904 6.11979 12.7575 7.05266 11.6108 7.05266C10.4642 7.05266 9.53131 6.11979 9.53131 4.97316ZM6.16375 10.095C6.16375 9.04211 7.02032 8.18548 8.07327 8.18548H8.46539V10.3936C8.46539 10.6206 8.60099 10.8257 8.80983 10.9146C9.01872 11.0036 9.26052 10.9593 9.42426 10.802L11.0444 9.24522V10.5352C11.0444 10.848 11.298 11.1016 11.6108 11.1016C11.9236 11.1016 12.1772 10.848 12.1772 10.5352V9.24522L13.7974 10.802C13.905 10.9054 14.0464 10.96 14.19 10.96C14.2648 10.96 14.3403 10.9452 14.4119 10.9147C14.6208 10.8257 14.7563 10.6206 14.7563 10.3936V8.18553H15.1484C16.2013 8.18553 17.0579 9.04217 17.0579 10.0951V13.1406H6.16375V10.095ZM24.8086 16.7656H4.19141V14.2734H24.8086V16.7656Z" fill="#220959"/>
<path d="M11.5094 27.8672C11.3603 27.8672 11.2143 27.9278 11.1089 28.0331C11.0036 28.1385 10.943 28.2846 10.943 28.4336C10.943 28.5826 11.0035 28.7287 11.1089 28.834C11.2143 28.9394 11.3603 29 11.5094 29C11.6583 29 11.8045 28.9394 11.9098 28.834C12.0151 28.7287 12.0758 28.5826 12.0758 28.4336C12.0758 28.2846 12.0152 28.1385 11.9098 28.0331C11.8045 27.9278 11.6583 27.8672 11.5094 27.8672Z" fill="#220959"/>
<path d="M19.1096 21.0703C19.4224 21.0703 19.676 20.8167 19.676 20.5039C19.676 20.1911 19.4224 19.9375 19.1096 19.9375H19.0755C18.7627 19.9375 18.5091 20.1911 18.5091 20.5039C18.5091 20.8167 18.7627 21.0703 19.0755 21.0703H19.1096Z" fill="#220959"/>
</svg>
